# xmcd
#
# Track frame offsets: 
#        150
#        11234
#        22759
#        32195
#        40906
#        53113
#        65396
#        75648
#        85528
#        95569
#        105090
#        116766
#        128505
#        140290
#        152094
#
# Disc length: 2153 seconds
#
# Revision: 7
# Processed by: cddbd v1.5.2PL0 Copyright (c) Steve Scherf et al.
# Submitted via: ExactAudioCopy v0.99pb5
#
DISCID=ad08670f
DTITLE=Various Artist - Classic Country - TL 626-14 - 1957 - 1960 - CD 1
DYEAR=2001
DGENRE=Country
TTITLE0=Everly Brothers - (Till) I kissed you
TTITLE1=Johnny Cash And The Tennessee Two - Big river
TTITLE2=Bob Luman - Let's think about living
TTITLE3=Don Gibson - Sweet dreams
TTITLE4=Hank Locklin - It's a little more like heaven
TTITLE5=Bonnie Guitar - Dark moon
TTITLE6=Jimmy Newman - A fallen star
TTITLE7=Marty Robbins - Knee deep in the blues
TTITLE8=Jim Reeves - Blue boy
TTITLE9=Webb Pierce - Honky tonk song
TTITLE10=Skeeter Davis - My last date (with you)
TTITLE11=Ray Price - My shoes keep walking back to you
TTITLE12=Bobby Helms - Jacqueline
TTITLE13=Jimmie Rodgers - Secretly
TTITLE14=Ricky Nelson - Believe what you say
EXTD=
EXTT0=
EXTT1=
EXTT2=
EXTT3=
EXTT4=
EXTT5=
EXTT6=
EXTT7=
EXTT8=
EXTT9=
EXTT10=
EXTT11=
EXTT12=
EXTT13=
EXTT14=
PLAYORDER=
